<svg width="30" height="30" xmlns="http://www.w3.org/2000/svg">

 <g>
  <title>background</title>
  <rect fill="none" id="canvas_background" height="402" width="582" y="-1" x="-1"/>
 </g>
 <g>
  <title>Layer 1</title>
  <path fill="#007aff" id="svg_1" d="m23,3l-15,0c-1.105,0 -2,0.895 -2,2l0,20c0,1.105 0.895,2 2,2l15,0c1.105,0 2,-0.895 2,-2l0,-20c0,-1.105 -0.895,-2 -2,-2zm-12.5,13c0.828,0 1.5,0.672 1.5,1.5s-0.672,1.5 -1.5,1.5s-1.5,-0.672 -1.5,-1.5s0.672,-1.5 1.5,-1.5zm-1.5,-3.5c0,-0.828 0.672,-1.5 1.5,-1.5s1.5,0.672 1.5,1.5s-0.672,1.5 -1.5,1.5s-1.5,-0.672 -1.5,-1.5zm6.5,11.5l-5,0c-0.828,0 -1.5,-0.672 -1.5,-1.5s0.672,-1.5 1.5,-1.5l5,0c0.828,0 1.5,0.672 1.5,1.5s-0.672,1.5 -1.5,1.5zm0,-5c-0.828,0 -1.5,-0.672 -1.5,-1.5s0.672,-1.5 1.5,-1.5s1.5,0.672 1.5,1.5s-0.672,1.5 -1.5,1.5zm0,-5c-0.828,0 -1.5,-0.672 -1.5,-1.5s0.672,-1.5 1.5,-1.5s1.5,0.672 1.5,1.5s-0.672,1.5 -1.5,1.5zm5,10c-0.828,0 -1.5,-0.672 -1.5,-1.5s0.672,-1.5 1.5,-1.5s1.5,0.672 1.5,1.5s-0.672,1.5 -1.5,1.5zm0,-5c-0.828,0 -1.5,-0.672 -1.5,-1.5s0.672,-1.5 1.5,-1.5s1.5,0.672 1.5,1.5s-0.672,1.5 -1.5,1.5zm0,-5c-0.828,0 -1.5,-0.672 -1.5,-1.5s0.672,-1.5 1.5,-1.5s1.5,0.672 1.5,1.5s-0.672,1.5 -1.5,1.5zm1.5,-5l-13,0l0,-3l13,0l0,3z"/>
 </g>
</svg>